# Blender v2.79 (sub 0) OBJ File: ''
# www.blender.org
mtllib plan.mtl
o Grid_Grid.002
v 0.003563 -0.173717 -0.343888
v 0.003563 0.732591 0.329070
v 0.000000 -0.173717 0.336479
v 0.000000 0.732591 -0.336479
v 0.000000 1.590256 0.336479
v 0.000000 1.590256 -0.336479
v 0.000000 2.479205 0.336479
v 0.000000 2.479205 -0.336479
vt 0.664899 0.253690
vt 0.341643 0.002839
vt 0.664902 0.000051
vt 0.341643 0.253690
vt 0.000051 0.000054
vt 0.999946 0.253694
vt 0.999949 0.000055
vt 0.000051 0.256490
vn -1.0000 -0.0042 0.0000
vn -1.0000 0.0040 0.0054
vn -1.0000 0.0000 0.0000
vn -1.0000 -0.0000 0.0054
vn -1.0000 -0.0039 -0.0052
usemtl None
s off
f 6/1/1 2/2/1 5/3/1
f 4/4/2 3/5/2 2/2/2
f 8/6/3 5/3/3 7/7/3
f 6/1/4 4/4/4 2/2/4
f 4/4/5 1/8/5 3/5/5
f 8/6/3 6/1/3 5/3/3
